<svg width="20" height="18" viewBox="0 0 20 18" fill="none" xmlns="http://www.w3.org/2000/svg">
<path d="M10.7249 11.5584L8.60825 9.46675L8.63325 9.44175C10.0833 7.82508 11.1166 5.96675 11.7249 4.00008H14.1666V2.33341H8.33325V0.666748H6.66658V2.33341H0.833252V3.99175H10.1416C9.58325 5.60008 8.69992 7.12508 7.49992 8.45842C6.72492 7.60008 6.08325 6.65841 5.57492 5.66675H3.90825C4.51659 7.02508 5.34992 8.30842 6.39158 9.46675L2.14992 13.6501L3.33325 14.8334L7.49992 10.6667L10.0916 13.2584L10.7249 11.5584ZM15.4166 7.33342H13.7499L9.99992 17.3334H11.6666L12.5999 14.8334H16.5583L17.4999 17.3334H19.1666L15.4166 7.33342ZM13.2333 13.1667L14.5833 9.55842L15.9333 13.1667H13.2333Z" fill="#1D242E"/>
</svg>
