<svg width="18" height="18" viewBox="0 0 18 18" fill="none" xmlns="http://www.w3.org/2000/svg">
<path fill-rule="evenodd" clip-rule="evenodd" d="M15.7408 7.75542C15.7406 7.62427 15.6884 7.49856 15.5956 7.40589C15.5027 7.31322 15.377 7.26117 15.2458 7.26117L8.89855 7.26605C8.06005 7.2668 7.8523 6.10055 8.6398 5.81217L9.49668 5.49792C9.61095 5.45615 9.70395 5.37069 9.75522 5.26035C9.80649 5.15001 9.81182 5.02382 9.77005 4.90955C9.72828 4.79527 9.64282 4.70227 9.53248 4.651C9.42214 4.59973 9.29595 4.5944 9.18168 4.63617L4.68918 6.2693C3.9717 6.53014 3.35197 7.00561 2.91424 7.63107C2.47651 8.25653 2.24203 9.00163 2.24268 9.76505C2.24418 11.8178 3.90955 13.4802 5.96193 13.4787L10.1109 13.4749C10.2103 13.4748 10.3056 13.4353 10.3759 13.365C10.4461 13.2946 10.4856 13.1993 10.4856 13.0999V12.8599C10.4856 12.8106 10.4758 12.7618 10.457 12.7163C10.4381 12.6708 10.4104 12.6295 10.3756 12.5946C10.3407 12.5598 10.2993 12.5322 10.2538 12.5134C10.2083 12.4945 10.1595 12.4849 10.1102 12.4849L8.70918 12.4864L8.70843 11.7364L11.3736 11.7342C11.4228 11.7341 11.4716 11.7244 11.517 11.7055C11.5625 11.6866 11.6038 11.6589 11.6386 11.6241C11.6734 11.5892 11.701 11.5478 11.7198 11.5023C11.7386 11.4568 11.7482 11.408 11.7482 11.3588V11.1188C11.7482 11.0695 11.7385 11.0207 11.7196 10.9752C11.7007 10.9297 11.6731 10.8883 11.6382 10.8535C11.6033 10.8187 11.562 10.7911 11.5164 10.7722C11.4709 10.7534 11.4221 10.7437 11.3728 10.7438L9.56268 10.7457L9.56193 9.99567L11.6556 9.9938C11.7549 9.9937 11.8502 9.95414 11.9205 9.88383C11.9907 9.81351 12.0302 9.71819 12.0302 9.6188V9.3788C12.0302 9.32952 12.0205 9.28072 12.0016 9.2352C11.9827 9.18968 11.9551 9.14833 11.9202 9.1135C11.8853 9.07867 11.844 9.05106 11.7984 9.03223C11.7529 9.01341 11.7041 9.00375 11.6548 9.0038L9.56118 9.00567L9.56043 8.25567L15.2462 8.25117C15.3112 8.25117 15.3757 8.23834 15.4358 8.21342C15.4959 8.1885 15.5505 8.15197 15.5965 8.10592C15.6424 8.05988 15.6789 8.00522 15.7037 7.94508C15.7285 7.88494 15.7413 7.82049 15.7412 7.75542H15.7408ZM12.7157 9.00305L15.2469 9.00117C15.5771 9.00092 15.8937 8.86952 16.127 8.63586C16.3603 8.4022 16.4912 8.08543 16.491 7.75523C16.4907 7.42504 16.3593 7.10847 16.1257 6.87516C15.892 6.64185 15.5752 6.51092 15.2451 6.51117L8.8978 6.51605L9.75468 6.20217C10.5797 5.89955 10.8167 4.84542 10.2002 4.21917C10.0376 4.05409 9.8311 3.93918 9.60513 3.88813C9.37916 3.83707 9.14327 3.85201 8.92555 3.93117L4.43305 5.5643C3.57072 5.87777 2.82585 6.44924 2.29975 7.20098C1.77366 7.95272 1.49186 8.84825 1.49268 9.7658C1.49455 12.2325 3.49593 14.2305 5.96268 14.2283L10.1113 14.2253C10.2591 14.2252 10.4054 14.196 10.5419 14.1393C10.6783 14.0827 10.8023 13.9997 10.9067 13.8951C11.0111 13.7906 11.0939 13.6664 11.1503 13.5299C11.2067 13.3933 11.2357 13.2469 11.2356 13.0992V12.8592C11.2356 12.7279 11.2127 12.6015 11.1711 12.4842H11.3739C11.5217 12.4841 11.668 12.4549 11.8045 12.3982C11.941 12.3416 12.0649 12.2586 12.1693 12.154C12.2737 12.0494 12.3565 11.9253 12.4129 11.7887C12.4694 11.6522 12.4983 11.5058 12.4982 11.358V11.118C12.4981 10.9071 12.4386 10.7004 12.3264 10.5218C12.4675 10.4171 12.582 10.2808 12.6608 10.1239C12.7396 9.96692 12.7805 9.79367 12.7802 9.61805V9.37805C12.7802 9.2468 12.7573 9.12042 12.7157 9.00305Z" fill="black"/>
<path d="M15.3688 11.4618C15.3695 12.0618 14.8749 12.5336 14.2449 12.5343C13.6149 12.5343 13.1195 12.0637 13.1191 11.4637C13.1184 10.8637 14.2423 9.53394 14.2423 9.53394C14.2423 9.53394 15.3684 10.9046 15.3691 11.4614L15.3688 11.4618ZM14.9911 8.22106C14.9915 8.53156 14.6559 8.78356 14.2419 8.78431C13.8275 8.78431 13.4915 8.53306 13.4911 8.22219C13.4911 7.91169 13.8268 7.65969 14.2411 7.65894C14.6551 7.65894 14.9911 7.91019 14.9911 8.22106Z" fill="black"/>
</svg>
