<svg width="20" height="20" viewBox="0 0 20 20" fill="none" xmlns="http://www.w3.org/2000/svg">
<g clip-path="url(#clip0_530_3174)">
<path d="M10.7252 12.5584L8.6085 10.4667L8.6335 10.4417C10.0835 8.82508 11.1168 6.96675 11.7252 5.00008H14.1668V3.33341H8.3335V1.66675H6.66683V3.33341H0.833496V4.99175H10.1418C9.5835 6.60008 8.70016 8.12508 7.50016 9.45842C6.72516 8.60008 6.0835 7.65842 5.57516 6.66675H3.9085C4.51683 8.02508 5.35016 9.30842 6.39183 10.4667L2.15016 14.6501L3.3335 15.8334L7.50016 11.6667L10.0918 14.2584L10.7252 12.5584ZM15.4168 8.33342H13.7502L10.0002 18.3334H11.6668L12.6002 15.8334H16.5585L17.5002 18.3334H19.1668L15.4168 8.33342ZM13.2335 14.1667L14.5835 10.5584L15.9335 14.1667H13.2335V14.1667Z" fill="#1D242E"/>
</g>
<defs>
<clipPath id="clip0_530_3174">
<rect width="20" height="20" fill="white"/>
</clipPath>
</defs>
</svg>
