<svg width="18" height="18" viewBox="0 0 18 18" fill="none" xmlns="http://www.w3.org/2000/svg">
<g clip-path="url(#clip0_530_3193)">
<path d="M9.04802 0.294678C5.9208 0.294678 3.37549 2.84027 3.37549 5.96693C3.37549 9.09555 5.9208 11.6397 9.04802 11.6397C12.1752 11.6397 14.72 9.09555 14.72 5.96693C14.7197 2.84027 12.1752 0.294678 9.04802 0.294678ZM9.04802 11.1146C6.21021 11.1146 3.89946 8.80502 3.89946 5.96693C3.89946 3.12968 6.21021 0.819209 9.04802 0.819209C11.885 0.819209 14.1952 3.1294 14.1952 5.96693C14.1952 8.80474 11.885 11.1146 9.04802 11.1146Z" fill="black"/>
<path d="M6.11182 5.59348H7.20082V4.48901H6.11182V5.59348Z" fill="black"/>
<path d="M9.05316 1.50439C6.59081 1.50439 4.58803 3.50858 4.58803 5.9698C4.58803 8.43158 6.59053 10.4338 9.05316 10.4338C11.5144 10.4338 13.5163 8.43158 13.5163 5.9698C13.5163 3.50858 11.5141 1.50439 9.05316 1.50439ZM5.72822 5.98077V4.10146H7.59431V5.98077H5.72822ZM7.65056 9.41652C7.52907 9.41656 7.40877 9.39266 7.29652 9.34618C7.18428 9.29971 7.08229 9.23157 6.99638 9.14567C6.91048 9.05976 6.84234 8.95777 6.79587 8.84553C6.74939 8.73328 6.72549 8.61298 6.72553 8.49149C6.72553 8.24634 6.82291 8.01123 6.99626 7.83789C7.1696 7.66454 7.40471 7.56716 7.64986 7.56716C7.89501 7.56716 8.13011 7.66454 8.30346 7.83789C8.4768 8.01123 8.57419 8.24634 8.57419 8.49149C8.5743 8.61288 8.55049 8.7331 8.50413 8.84529C8.45777 8.95748 8.38977 9.05943 8.304 9.14533C8.21823 9.23124 8.11637 9.2994 8.00426 9.34593C7.89214 9.39246 7.77195 9.41645 7.65056 9.41652ZM8.76937 7.36171C8.52399 7.36171 8.28865 7.26427 8.11508 7.09081C7.94151 6.91735 7.84393 6.68206 7.84378 6.43668C7.84393 6.19124 7.94149 5.9559 8.11505 5.78235C8.2886 5.6088 8.52394 5.51123 8.76937 5.51108C9.279 5.51108 9.693 5.92564 9.693 6.43668C9.693 6.94771 9.27872 7.36171 8.76937 7.36171ZM9.41737 3.85705C9.16384 3.84959 8.92319 3.74363 8.74649 3.56166C8.5698 3.37969 8.47096 3.13602 8.47096 2.88238C8.47096 2.62873 8.5698 2.38507 8.74649 2.2031C8.92319 2.02113 9.16384 1.91517 9.41737 1.90771C9.54531 1.90763 9.672 1.93279 9.79021 1.98173C9.90841 2.03067 10.0158 2.10244 10.1062 2.19293C10.1967 2.28342 10.2684 2.39085 10.3173 2.50908C10.3661 2.62731 10.3912 2.75402 10.3911 2.88196C10.3912 3.14037 10.2887 3.38826 10.1061 3.57112C9.92353 3.75398 9.67579 3.85683 9.41737 3.85705ZM11.0332 8.81943C10.8502 8.81954 10.6713 8.76538 10.5191 8.6638C10.3669 8.56223 10.2482 8.4178 10.1781 8.24878C10.108 8.07976 10.0896 7.89375 10.1253 7.71427C10.1609 7.5348 10.249 7.36992 10.3783 7.2405C10.5076 7.11107 10.6725 7.02292 10.8519 6.98718C11.0314 6.95144 11.2174 6.96973 11.3865 7.03972C11.5555 7.10972 11.7 7.22828 11.8017 7.38042C11.9034 7.53255 11.9576 7.71142 11.9576 7.89439C11.9575 8.13961 11.8601 8.37476 11.6868 8.54821C11.5135 8.72165 11.2784 8.8192 11.0332 8.81943ZM11.2292 6.10143C10.9838 6.10113 10.7486 6.0035 10.5752 5.82996C10.4018 5.65643 10.3043 5.42117 10.3042 5.17583C10.3041 5.05432 10.328 4.93399 10.3745 4.82171C10.421 4.70943 10.4891 4.6074 10.575 4.52146C10.6609 4.43551 10.7629 4.36732 10.8751 4.32078C10.9874 4.27425 11.1077 4.25028 11.2292 4.25024C11.3527 4.24719 11.4755 4.26888 11.5904 4.31403C11.7054 4.35918 11.8102 4.42687 11.8986 4.51312C11.987 4.59937 12.0572 4.70244 12.1052 4.81625C12.1532 4.93006 12.1779 5.05232 12.1779 5.17583C12.1779 5.29934 12.1532 5.4216 12.1052 5.53541C12.0572 5.64923 11.987 5.75229 11.8986 5.83854C11.8102 5.92479 11.7054 5.99249 11.5904 6.03763C11.4755 6.08278 11.3527 6.10447 11.2292 6.10143ZM2.05397 9.99786V6.42711C2.05397 5.92058 1.63941 5.50827 1.1295 5.50827C0.885879 5.50842 0.652283 5.60528 0.480043 5.77757C0.307804 5.94987 0.211012 6.18349 0.210938 6.42711V11.3172C0.210938 11.9933 0.454219 12.6464 0.890719 13.1566L3.94003 16.3949C4.24266 16.6792 4.31662 16.9318 4.31662 17.3143V17.9038H7.63537L7.63903 16.5012C7.63903 15.9666 7.68262 15.253 7.01409 14.5524L3.14522 10.6675C3.00837 10.5353 2.82534 10.4616 2.63503 10.4622C2.49481 10.4621 2.35749 10.5022 2.23933 10.5777C2.12116 10.6532 2.02709 10.7609 1.96825 10.8882C1.9094 11.0155 1.88824 11.157 1.90727 11.2959C1.9263 11.4348 1.98472 11.5654 2.07562 11.6721L3.94172 13.6713C4.06266 13.8127 4.26741 14.0796 4.36894 14.407C4.42378 14.5772 4.43953 14.7431 4.44234 14.9335H3.84159C3.83906 14.7977 3.82922 14.6888 3.79659 14.5879C3.73809 14.3989 3.62081 14.2293 3.53278 14.1201L1.63856 12.0414C1.40034 11.8012 1.26984 11.4899 1.26984 11.1631C1.26984 10.6726 1.56516 10.2209 2.05341 9.99814L2.05397 9.99786ZM16.0377 9.99786V6.42711C16.0377 5.92058 16.4523 5.50827 16.9619 5.50827C17.2056 5.50834 17.4392 5.60517 17.6115 5.77748C17.7838 5.94978 17.8807 6.18344 17.8807 6.42711V11.3172C17.8807 11.9933 17.6377 12.6464 17.201 13.1566L14.1517 16.3949C13.849 16.6792 13.7751 16.9318 13.7751 17.3143V17.9038H10.4563L10.4527 16.5012C10.4527 15.9666 10.4091 15.253 11.0776 14.5524L14.9465 10.6675C15.0833 10.5353 15.2664 10.4616 15.4567 10.4622C15.5969 10.4621 15.7342 10.5022 15.8524 10.5777C15.9705 10.6532 16.0646 10.7609 16.1234 10.8882C16.1823 11.0155 16.2034 11.157 16.1844 11.2959C16.1654 11.4348 16.107 11.5654 16.0161 11.6721L14.15 13.6713C14.029 13.8127 13.8243 14.0796 13.7227 14.407C13.6676 14.5772 13.6522 14.7431 13.6491 14.9335H14.2498C14.2521 14.7977 14.2622 14.6888 14.2948 14.5879C14.3533 14.3989 14.4706 14.2293 14.5586 14.1201L16.4528 12.0414C16.6911 11.8012 16.8216 11.4899 16.8216 11.1631C16.8216 10.6726 16.5265 10.2209 16.038 9.99814L16.0377 9.99786Z" fill="black"/>
</g>
<defs>
<clipPath id="clip0_530_3193">
<rect width="18" height="18" fill="white"/>
</clipPath>
</defs>
</svg>
