<svg width="196" height="91" viewBox="0 0 196 91" fill="none" xmlns="http://www.w3.org/2000/svg">
<path d="M105.547 61.0584C103.624 61.0584 101.864 60.6147 100.267 59.7272C98.6989 58.8397 97.4417 57.5085 96.495 55.7335C95.5779 53.929 95.1194 51.6511 95.1194 48.8999C95.1194 46.1192 95.5632 43.8413 96.4506 42.0663C97.3677 40.2914 98.6102 38.9749 100.178 38.117C101.746 37.2295 103.536 36.7858 105.547 36.7858C107.884 36.7858 109.94 37.2887 111.715 38.2945C113.52 39.3003 114.94 40.7055 115.975 42.5101C117.04 44.3146 117.573 46.4446 117.573 48.8999C117.573 51.3553 117.04 53.5 115.975 55.3342C114.94 57.1387 113.52 58.5439 111.715 59.5497C109.94 60.5555 107.884 61.0584 105.547 61.0584ZM92.4126 69.3564V37.0521H97.6931V42.6432L97.5156 48.9443L97.9594 55.2454V69.3564H92.4126ZM104.926 56.3104C106.257 56.3104 107.441 56.0146 108.476 55.4229C109.541 54.8313 110.384 53.9734 111.005 52.8492C111.627 51.7251 111.937 50.4086 111.937 48.8999C111.937 47.3616 111.627 46.0452 111.005 44.9506C110.384 43.8265 109.541 42.9686 108.476 42.3769C107.441 41.7853 106.257 41.4895 104.926 41.4895C103.595 41.4895 102.397 41.7853 101.332 42.3769C100.267 42.9686 99.4237 43.8265 98.8025 44.9506C98.1812 46.0452 97.8706 47.3616 97.8706 48.8999C97.8706 50.4086 98.1812 51.7251 98.8025 52.8492C99.4237 53.9734 100.267 54.8313 101.332 55.4229C102.397 56.0146 103.595 56.3104 104.926 56.3104ZM131.53 61.0584C129.519 61.0584 127.729 60.6147 126.161 59.7272C124.593 58.8397 123.351 57.5085 122.434 55.7335C121.546 53.929 121.103 51.6511 121.103 48.8999C121.103 46.1192 121.561 43.8413 122.478 42.0663C123.425 40.2914 124.682 38.9749 126.25 38.117C127.847 37.2295 129.608 36.7858 131.53 36.7858C133.867 36.7858 135.923 37.2887 137.698 38.2945C139.503 39.3003 140.923 40.7055 141.958 42.5101C143.023 44.3146 143.556 46.4446 143.556 48.8999C143.556 51.3553 143.023 53.4852 141.958 55.2898C140.923 57.0943 139.503 58.5143 137.698 59.5497C135.923 60.5555 133.867 61.0584 131.53 61.0584ZM118.396 60.7478V27.8222H123.942V42.5544L123.499 48.8556L123.676 55.1567V60.7478H118.396ZM130.909 56.3104C132.24 56.3104 133.424 56.0146 134.459 55.4229C135.524 54.8313 136.367 53.9734 136.988 52.8492C137.61 51.7251 137.92 50.4086 137.92 48.8999C137.92 47.3616 137.61 46.0452 136.988 44.9506C136.367 43.8265 135.524 42.9686 134.459 42.3769C133.424 41.7853 132.24 41.4895 130.909 41.4895C129.578 41.4895 128.38 41.7853 127.315 42.3769C126.25 42.9686 125.407 43.8265 124.786 44.9506C124.164 46.0452 123.854 47.3616 123.854 48.8999C123.854 50.4086 124.164 51.7251 124.786 52.8492C125.407 53.9734 126.25 54.8313 127.315 55.4229C128.38 56.0146 129.578 56.3104 130.909 56.3104ZM144.379 60.7478V37.0521H149.659V43.575L149.038 41.667C149.748 40.0695 150.857 38.8566 152.366 38.0283C153.904 37.2 155.813 36.7858 158.09 36.7858V42.0663C157.854 42.0072 157.632 41.9776 157.425 41.9776C157.218 41.948 157.011 41.9332 156.804 41.9332C154.703 41.9332 153.032 42.5544 151.789 43.7969C150.547 45.0098 149.926 46.8291 149.926 49.2549V60.7478H144.379Z" fill="white"/>
<path d="M101.616 66.5657V63.4595H102.193V66.0776H103.817V66.5657H101.616ZM105.493 66.5657V63.4595H106.069V66.5657H105.493ZM108.658 64.8883H110.207V65.3764H108.658V64.8883ZM108.707 66.5657H108.13V63.4595H110.397V63.9432H108.707V66.5657ZM112.708 64.7508H114.252V65.2256H112.708V64.7508ZM112.752 66.082H114.505V66.5657H112.175V63.4595H114.443V63.9432H112.752V66.082ZM119.778 66.61C119.535 66.61 119.303 66.576 119.081 66.508C118.86 66.437 118.683 66.3468 118.553 66.2373L118.753 65.7891C118.877 65.8868 119.031 65.9681 119.214 66.0332C119.398 66.0983 119.586 66.1308 119.778 66.1308C119.941 66.1308 120.072 66.1131 120.173 66.0776C120.274 66.0421 120.348 65.9947 120.395 65.9356C120.442 65.8734 120.466 65.8039 120.466 65.727C120.466 65.6323 120.432 65.5569 120.364 65.5007C120.296 65.4415 120.207 65.3957 120.098 65.3631C119.991 65.3276 119.871 65.2951 119.738 65.2655C119.608 65.2359 119.476 65.2019 119.343 65.1635C119.213 65.122 119.093 65.0703 118.984 65.0081C118.877 64.9431 118.79 64.8573 118.722 64.7508C118.654 64.6443 118.62 64.5082 118.62 64.3425C118.62 64.1739 118.664 64.0201 118.753 63.881C118.845 63.739 118.982 63.6266 119.166 63.5438C119.352 63.458 119.587 63.4151 119.871 63.4151C120.058 63.4151 120.242 63.4388 120.426 63.4861C120.609 63.5334 120.769 63.6015 120.905 63.6902L120.723 64.1384C120.584 64.0556 120.441 63.9949 120.293 63.9565C120.145 63.9151 120.003 63.8944 119.867 63.8944C119.707 63.8944 119.577 63.9136 119.476 63.952C119.379 63.9905 119.306 64.0408 119.259 64.1029C119.214 64.165 119.192 64.236 119.192 64.3159C119.192 64.4106 119.225 64.4875 119.29 64.5467C119.358 64.6029 119.445 64.6472 119.552 64.6798C119.661 64.7123 119.782 64.7449 119.916 64.7774C120.049 64.807 120.18 64.841 120.311 64.8795C120.444 64.9179 120.563 64.9682 120.67 65.0303C120.779 65.0925 120.867 65.1768 120.932 65.2833C121 65.3898 121.034 65.5244 121.034 65.6871C121.034 65.8527 120.988 66.0066 120.896 66.1486C120.808 66.2876 120.67 66.4 120.484 66.4858C120.297 66.5686 120.062 66.61 119.778 66.61ZM124.264 66.61C124.027 66.61 123.807 66.5716 123.603 66.4947C123.402 66.4148 123.225 66.3039 123.075 66.1619C122.927 66.0169 122.811 65.8468 122.729 65.6516C122.646 65.4563 122.604 65.2433 122.604 65.0126C122.604 64.7818 122.646 64.5688 122.729 64.3736C122.811 64.1783 122.928 64.0097 123.079 63.8677C123.23 63.7228 123.406 63.6118 123.607 63.5349C123.808 63.4551 124.029 63.4151 124.268 63.4151C124.523 63.4151 124.755 63.4595 124.965 63.5482C125.175 63.634 125.352 63.7627 125.497 63.9343L125.125 64.2848C125.012 64.1636 124.887 64.0733 124.748 64.0142C124.608 63.952 124.458 63.921 124.295 63.921C124.132 63.921 123.983 63.9476 123.847 64.0009C123.714 64.0541 123.597 64.1295 123.496 64.2272C123.399 64.3248 123.322 64.4402 123.265 64.5733C123.212 64.7064 123.186 64.8528 123.186 65.0126C123.186 65.1723 123.212 65.3188 123.265 65.4519C123.322 65.585 123.399 65.7004 123.496 65.798C123.597 65.8956 123.714 65.9711 123.847 66.0243C123.983 66.0776 124.132 66.1042 124.295 66.1042C124.458 66.1042 124.608 66.0746 124.748 66.0154C124.887 65.9533 125.012 65.8601 125.125 65.7359L125.497 66.0909C125.352 66.2595 125.175 66.3882 124.965 66.4769C124.755 66.5657 124.521 66.61 124.264 66.61ZM127.27 66.5657V63.4595H127.847V66.5657H127.27ZM130.44 64.7508H131.984V65.2256H130.44V64.7508ZM130.485 66.082H132.237V66.5657H129.908V63.4595H132.175V63.9432H130.485V66.082ZM134.101 66.5657V63.4595H134.576L136.524 65.8513H136.288V63.4595H136.861V66.5657H136.386L134.438 64.1739H134.673V66.5657H134.101ZM140.351 66.61C140.115 66.61 139.894 66.5716 139.69 66.4947C139.489 66.4148 139.313 66.3039 139.162 66.1619C139.014 66.0169 138.899 65.8468 138.816 65.6516C138.733 65.4563 138.692 65.2433 138.692 65.0126C138.692 64.7818 138.733 64.5688 138.816 64.3736C138.899 64.1783 139.016 64.0097 139.166 63.8677C139.317 63.7228 139.493 63.6118 139.694 63.5349C139.896 63.4551 140.116 63.4151 140.356 63.4151C140.61 63.4151 140.842 63.4595 141.052 63.5482C141.262 63.634 141.44 63.7627 141.585 63.9343L141.212 64.2848C141.1 64.1636 140.974 64.0733 140.835 64.0142C140.696 63.952 140.545 63.921 140.382 63.921C140.22 63.921 140.07 63.9476 139.934 64.0009C139.801 64.0541 139.684 64.1295 139.584 64.2272C139.486 64.3248 139.409 64.4402 139.353 64.5733C139.3 64.7064 139.273 64.8528 139.273 65.0126C139.273 65.1723 139.3 65.3188 139.353 65.4519C139.409 65.585 139.486 65.7004 139.584 65.798C139.684 65.8956 139.801 65.9711 139.934 66.0243C140.07 66.0776 140.22 66.1042 140.382 66.1042C140.545 66.1042 140.696 66.0746 140.835 66.0154C140.974 65.9533 141.1 65.8601 141.212 65.7359L141.585 66.0909C141.44 66.2595 141.262 66.3882 141.052 66.4769C140.842 66.5657 140.609 66.61 140.351 66.61ZM143.89 64.7508H145.435V65.2256H143.89V64.7508ZM143.935 66.082H145.687V66.5657H143.358V63.4595H145.625V63.9432H143.935V66.082ZM148.514 66.61C148.271 66.61 148.039 66.576 147.817 66.508C147.595 66.437 147.419 66.3468 147.289 66.2373L147.489 65.7891C147.613 65.8868 147.767 65.9681 147.95 66.0332C148.134 66.0983 148.321 66.1308 148.514 66.1308C148.676 66.1308 148.808 66.1131 148.909 66.0776C149.009 66.0421 149.083 65.9947 149.131 65.9356C149.178 65.8734 149.202 65.8039 149.202 65.727C149.202 65.6323 149.167 65.5569 149.099 65.5007C149.031 65.4415 148.943 65.3957 148.833 65.3631C148.727 65.3276 148.607 65.2951 148.474 65.2655C148.344 65.2359 148.212 65.2019 148.079 65.1635C147.949 65.122 147.829 65.0703 147.719 65.0081C147.613 64.9431 147.526 64.8573 147.458 64.7508C147.39 64.6443 147.356 64.5082 147.356 64.3425C147.356 64.1739 147.4 64.0201 147.489 63.881C147.58 63.739 147.718 63.6266 147.901 63.5438C148.088 63.458 148.323 63.4151 148.607 63.4151C148.793 63.4151 148.978 63.4388 149.162 63.4861C149.345 63.5334 149.505 63.6015 149.641 63.6902L149.459 64.1384C149.32 64.0556 149.176 63.9949 149.028 63.9565C148.881 63.9151 148.739 63.8944 148.602 63.8944C148.443 63.8944 148.313 63.9136 148.212 63.952C148.114 63.9905 148.042 64.0408 147.995 64.1029C147.95 64.165 147.928 64.236 147.928 64.3159C147.928 64.4106 147.961 64.4875 148.026 64.5467C148.094 64.6029 148.181 64.6472 148.287 64.6798C148.397 64.7123 148.518 64.7449 148.651 64.7774C148.784 64.807 148.916 64.841 149.046 64.8795C149.179 64.9179 149.299 64.9682 149.406 65.0303C149.515 65.0925 149.602 65.1768 149.667 65.2833C149.735 65.3898 149.77 65.5244 149.77 65.6871C149.77 65.8527 149.724 66.0066 149.632 66.1486C149.543 66.2876 149.406 66.4 149.219 66.4858C149.033 66.5686 148.798 66.61 148.514 66.61Z" fill="white"/>
<g clip-path="url(#clip0_530_3106)">
<path d="M41.1607 52.027C43.9713 52.027 46.2497 49.7486 46.2497 46.9381C46.2497 44.1275 43.9713 41.8491 41.1607 41.8491C38.3502 41.8491 36.0718 44.1275 36.0718 46.9381C36.0718 49.7486 38.3502 52.027 41.1607 52.027Z" fill="white"/>
<path d="M54.1276 52.7694C55.8379 52.7694 57.2244 51.3829 57.2244 49.6725C57.2244 47.9622 55.8379 46.5757 54.1276 46.5757C52.4173 46.5757 51.0308 47.9622 51.0308 49.6725C51.0308 51.3829 52.4173 52.7694 54.1276 52.7694Z" fill="white"/>
<path d="M57.08 41.8671C60.8608 41.8671 63.9256 38.8022 63.9256 35.0214C63.9256 31.2407 60.8608 28.1758 57.08 28.1758C53.2993 28.1758 50.2344 31.2407 50.2344 35.0214C50.2344 38.8022 53.2993 41.8671 57.08 41.8671Z" fill="white"/>
<path d="M51.0307 69.286C54.8114 69.286 57.8763 66.2211 57.8763 62.4404C57.8763 58.6596 54.8114 55.5947 51.0307 55.5947C47.25 55.5947 44.1851 58.6596 44.1851 62.4404C44.1851 66.2211 47.25 69.286 51.0307 69.286Z" fill="white"/>
<path d="M72.2559 65.5372C78.6271 65.5372 83.792 60.3723 83.792 54.001C83.792 47.6298 78.6271 42.4648 72.2559 42.4648C65.8846 42.4648 60.7197 47.6298 60.7197 54.001C60.7197 60.3723 65.8846 65.5372 72.2559 65.5372Z" fill="white"/>
</g>
<defs>
<clipPath id="clip0_530_3106">
<rect width="47.7021" height="41.11" fill="white" transform="translate(36.0718 28.1758)"/>
</clipPath>
</defs>
</svg>
