<svg width="24" height="24" viewBox="0 0 24 24" fill="none" xmlns="http://www.w3.org/2000/svg">
<path d="M9.89551 1.54688C8.68145 1.54688 7.57988 1.6725 6.81582 1.86375C6.43145 1.95937 6.13145 2.07516 5.9627 2.17547C5.90176 2.21203 5.88301 2.23078 5.86426 2.25C5.88301 2.26922 5.90176 2.28797 5.9627 2.32453C6.13145 2.42484 6.43145 2.54063 6.81582 2.63625C7.57988 2.8275 8.68145 2.95312 9.89551 2.95312C11.1096 2.95312 12.2111 2.8275 12.9752 2.63625C13.3596 2.54063 13.6596 2.42484 13.8283 2.32453C13.8893 2.28797 13.908 2.26922 13.9268 2.25C13.908 2.23078 13.8893 2.21203 13.8283 2.17547C13.6596 2.07516 13.3596 1.95937 12.9752 1.86375C12.2111 1.6725 11.1096 1.54688 9.89551 1.54688ZM5.81738 3.19359V5.07187C6.12207 5.22656 6.52051 5.38125 6.81582 5.45625C7.57988 5.64844 8.68145 5.775 9.89551 5.775C11.1096 5.775 12.2111 5.64844 12.9752 5.45625C13.5377 5.32031 13.6033 5.30625 13.9736 5.07187V3.19359C13.7439 3.29484 13.4814 3.37969 13.1814 3.45469C12.3143 3.67078 11.1658 3.79688 9.89551 3.79688C8.6252 3.79688 7.47676 3.67078 6.60957 3.45469C6.30957 3.37969 6.04707 3.29484 5.81738 3.19359V3.19359ZM6.22051 6.16875C5.83145 6.30469 5.44707 6.54844 5.13301 6.8625C4.6352 7.35469 4.31738 8.01562 4.31738 8.625V11.625C4.31738 11.8594 4.42051 12.0609 4.68582 12.2906C4.9502 12.5156 5.37676 12.7359 5.90176 12.9141C6.96113 13.2656 8.42832 13.4531 9.89551 13.4531C11.358 13.4531 12.8299 13.2656 13.8893 12.9141C14.4143 12.7359 14.8408 12.5156 15.1033 12.2906C15.3705 12.0609 15.4736 11.8594 15.4736 11.625V8.625C15.4736 8.01562 15.1549 7.35469 14.658 6.8625C14.3439 6.54844 13.9643 6.30469 13.5705 6.16875C13.4486 6.20625 13.3174 6.24375 13.1814 6.27656C12.3143 6.49219 11.1658 6.61875 9.89551 6.61875C8.6252 6.61875 7.47676 6.49219 6.60957 6.27656C6.47363 6.24375 6.34238 6.20625 6.22051 6.16875ZM4.31738 13.0734V16.125C4.31738 16.3594 4.42051 16.5609 4.68582 16.7906C4.9502 17.0156 5.37676 17.2359 5.90176 17.4141C6.96113 17.7656 8.42832 17.9531 9.89551 17.9531C11.358 17.9531 12.8299 17.7656 13.8893 17.4141C14.4143 17.2359 14.8408 17.0156 15.1033 16.7906C15.3705 16.5609 15.4736 16.3594 15.4736 16.125V13.0734C15.108 13.3359 14.6627 13.5422 14.1518 13.7109C12.9611 14.1094 11.4283 14.2969 9.89551 14.2969C8.35801 14.2969 6.82988 14.1094 5.63926 13.7109C5.12832 13.5422 4.68066 13.3359 4.31738 13.0734V13.0734ZM4.31738 17.5734V20.625C4.31738 20.8594 4.42051 21.0609 4.68582 21.2906C4.9502 21.5156 5.37676 21.7359 5.90176 21.9141C6.96113 22.2656 8.42832 22.4531 9.89551 22.4531C10.7158 22.4531 11.5455 22.3922 12.2955 22.2797C12.1455 22.0687 12.0518 21.8297 12.0518 21.5578C12.0518 21.0047 12.4408 20.5688 12.9283 20.2969C13.2236 20.1281 13.5752 20.0109 13.9596 19.9406C14.0627 19.5234 14.4002 19.1906 14.7986 18.9656C15.0002 18.8531 15.2299 18.7594 15.4736 18.6891V17.5734C15.108 17.8359 14.6627 18.0422 14.1518 18.2109C12.9611 18.6094 11.4283 18.7969 9.89551 18.7969C8.35801 18.7969 6.82988 18.6094 5.63926 18.2109C5.12832 18.0422 4.68066 17.8359 4.31738 17.5734V17.5734ZM16.5939 19.3875C16.0361 19.3875 15.5346 19.5187 15.2111 19.7016C15.1033 19.7625 15.0236 19.8234 14.958 19.8797C15.5486 19.9125 16.0924 20.0578 16.5189 20.2969C16.8096 20.4609 17.0674 20.6812 17.2221 20.9484C17.3627 20.5969 17.6627 20.3109 18.0189 20.1141C18.1127 20.0625 18.2111 20.0156 18.3143 19.9688C18.2439 19.8844 18.1361 19.7906 17.9768 19.7016C17.6533 19.5187 17.1518 19.3875 16.5939 19.3875V19.3875ZM19.8143 20.5359C19.2564 20.5359 18.7549 20.6672 18.4314 20.85C18.1033 21.0328 17.9861 21.2297 17.9861 21.375C17.9861 21.5203 18.1033 21.7172 18.4314 21.9C18.7549 22.0828 19.2564 22.2141 19.8143 22.2141C20.3721 22.2141 20.8736 22.0828 21.1971 21.9C21.5252 21.7172 21.6424 21.5203 21.6424 21.375C21.6424 21.2297 21.5252 21.0328 21.1971 20.85C20.8736 20.6672 20.3721 20.5359 19.8143 20.5359ZM14.7236 20.7188C14.1658 20.7188 13.6643 20.85 13.3408 21.0328C13.0127 21.2156 12.8955 21.4125 12.8955 21.5578C12.8955 21.7031 13.0127 21.9 13.3408 22.0828C13.6643 22.2656 14.1658 22.3969 14.7236 22.3969C15.2814 22.3969 15.783 22.2656 16.1064 22.0828C16.4346 21.9 16.5518 21.7031 16.5518 21.5578C16.5518 21.4125 16.4346 21.2156 16.1064 21.0328C15.783 20.85 15.2814 20.7188 14.7236 20.7188Z" fill="white"/>
</svg>
