<svg width="25" height="25" viewBox="0 0 25 25" fill="none" xmlns="http://www.w3.org/2000/svg">
<path d="M9.65267 17.5555C9.51378 17.4166 9.44434 17.2522 9.44434 17.0622C9.44434 16.8725 9.51378 16.7083 9.65267 16.5694L13.7221 12.4999L9.63878 8.41661C9.50915 8.28698 9.44434 8.12495 9.44434 7.9305C9.44434 7.73606 9.51378 7.56939 9.65267 7.4305C9.79156 7.29161 9.956 7.22217 10.146 7.22217C10.3356 7.22217 10.4999 7.29161 10.6388 7.4305L15.3054 12.1111C15.361 12.1666 15.4004 12.2268 15.4238 12.2916C15.4467 12.3564 15.4582 12.4259 15.4582 12.4999C15.4582 12.574 15.4467 12.6435 15.4238 12.7083C15.4004 12.7731 15.361 12.8333 15.3054 12.8888L10.6249 17.5694C10.4953 17.699 10.3356 17.7638 10.146 17.7638C9.956 17.7638 9.79156 17.6944 9.65267 17.5555Z" fill="white"/>
</svg>
