<svg width="24" height="23" viewBox="0 0 24 23" fill="none" xmlns="http://www.w3.org/2000/svg">
<path d="M22.9836 17.7581C23.6422 16.5287 23.991 15.1573 23.9998 13.7627C24.0086 12.368 23.6771 10.9923 23.0341 9.75477C22.391 8.51722 21.4558 7.45519 20.3095 6.66077C19.1632 5.86635 17.8405 5.36352 16.4559 5.19586C16.0001 4.13262 15.3338 3.17261 14.4971 2.37363C13.6605 1.57464 12.6709 0.953212 11.5878 0.546737C10.5047 0.140263 9.35054 -0.0428479 8.19482 0.00842739C7.0391 0.0597027 5.90571 0.344304 4.86287 0.845099C3.82003 1.34589 2.88931 2.05253 2.12673 2.92246C1.36415 3.79239 0.785483 4.80764 0.425564 5.90708C0.0656446 7.00652 -0.0680846 8.16742 0.0324264 9.3199C0.132937 10.4724 0.46561 11.5926 1.01042 12.6131L0.345865 14.9284C0.268841 15.1859 0.26293 15.4595 0.328756 15.7201C0.394582 15.9807 0.529694 16.2187 0.719772 16.4088C0.909849 16.5988 1.14781 16.734 1.40844 16.7998C1.66906 16.8656 1.94264 16.8597 2.20018 16.7827L4.5154 16.1181C5.45569 16.6193 6.4804 16.9427 7.53805 17.0721C8.00522 18.167 8.69524 19.1526 9.56418 19.9662C10.4331 20.7798 11.4619 21.4036 12.5851 21.7978C13.7083 22.192 14.9013 22.3481 16.0881 22.256C17.275 22.1639 18.4296 21.8258 19.4786 21.2631L21.7938 21.9276C22.0513 22.0046 22.3249 22.0105 22.5855 21.9447C22.8462 21.8789 23.0841 21.7438 23.2742 21.5537C23.4643 21.3636 23.5994 21.1257 23.6652 20.865C23.7311 20.6044 23.7251 20.3308 23.6481 20.0733L22.9836 17.7581ZM21.3329 17.2114C21.2705 17.309 21.2296 17.4187 21.213 17.5333C21.1964 17.6479 21.2044 17.7647 21.2364 17.876L21.901 20.1805L19.6072 19.5159C19.4943 19.4829 19.3756 19.4745 19.2591 19.4911C19.1427 19.5078 19.0311 19.5491 18.9319 19.6124C18.1462 20.076 17.276 20.3788 16.3722 20.503C15.4684 20.6273 14.5488 20.5706 13.6671 20.3362C12.7854 20.1018 11.9591 19.6944 11.2362 19.1377C10.5134 18.581 9.90849 17.8861 9.45668 17.0935C11.5641 16.8689 13.5144 15.8737 14.9328 14.2989C16.3513 12.7242 17.138 10.6809 17.1419 8.56151C17.139 8.04756 17.0924 7.53479 17.0026 7.02875C18.5069 7.38375 19.8472 8.23636 20.8063 9.44839C21.7654 10.6604 22.2871 12.1608 22.2869 13.7064C22.2854 14.9387 21.9562 16.1484 21.3329 17.2114V17.2114Z" fill="white"/>
</svg>
