<svg width="102" height="46" viewBox="0 0 102 46" fill="none" xmlns="http://www.w3.org/2000/svg">
<path d="M57.0776 37.1073C55.49 37.1073 54.0369 36.7409 52.718 36.0082C51.4235 35.2755 50.3856 34.1765 49.604 32.7111C48.8469 31.2212 48.4683 29.3406 48.4683 27.0693C48.4683 24.7734 48.8347 22.8928 49.5674 21.4274C50.3245 19.962 51.3503 18.8752 52.6447 18.1669C53.9392 17.4342 55.4168 17.0679 57.0776 17.0679C59.007 17.0679 60.7044 17.4831 62.1699 18.3135C63.6597 19.1439 64.832 20.304 65.6868 21.7938C66.5661 23.2836 67.0057 25.0421 67.0057 27.0693C67.0057 29.0964 66.5661 30.8671 65.6868 32.3813C64.832 33.8712 63.6597 35.0313 62.1699 35.8617C60.7044 36.6921 59.007 37.1073 57.0776 37.1073ZM46.2336 43.958V17.2877H50.5932V21.9037L50.4466 27.1059L50.813 32.3081V43.958H46.2336ZM56.5647 33.1873C57.6637 33.1873 58.6407 32.9431 59.4955 32.4546C60.3747 31.9661 61.0708 31.2579 61.5837 30.3298C62.0966 29.4017 62.353 28.3148 62.353 27.0693C62.353 25.7992 62.0966 24.7124 61.5837 23.8087C61.0708 22.8806 60.3747 22.1724 59.4955 21.6839C58.6407 21.1954 57.6637 20.9512 56.5647 20.9512C55.4656 20.9512 54.4765 21.1954 53.5972 21.6839C52.718 22.1724 52.0219 22.8806 51.509 23.8087C50.9961 24.7124 50.7397 25.7992 50.7397 27.0693C50.7397 28.3148 50.9961 29.4017 51.509 30.3298C52.0219 31.2579 52.718 31.9661 53.5972 32.4546C54.4765 32.9431 55.4656 33.1873 56.5647 33.1873ZM78.5292 37.1073C76.8684 37.1073 75.3907 36.7409 74.0963 36.0082C72.8019 35.2755 71.7761 34.1765 71.019 32.7111C70.2863 31.2212 69.9199 29.3406 69.9199 27.0693C69.9199 24.7734 70.2985 22.8928 71.0556 21.4274C71.8371 19.962 72.8751 18.8752 74.1696 18.1669C75.4884 17.4342 76.9416 17.0679 78.5292 17.0679C80.4586 17.0679 82.156 17.4831 83.6214 18.3135C85.1113 19.1439 86.2836 20.304 87.1384 21.7938C88.0177 23.2836 88.4573 25.0421 88.4573 27.0693C88.4573 29.0964 88.0177 30.8549 87.1384 32.3447C86.2836 33.8345 85.1113 35.0069 83.6214 35.8617C82.156 36.6921 80.4586 37.1073 78.5292 37.1073ZM67.6852 36.8508V9.66756H72.2645V21.8304L71.8982 27.0326L72.0447 32.2348V36.8508H67.6852ZM78.0163 33.1873C79.1153 33.1873 80.0923 32.9431 80.9471 32.4546C81.8263 31.9661 82.5224 31.2579 83.0353 30.3298C83.5482 29.4017 83.8046 28.3148 83.8046 27.0693C83.8046 25.7992 83.5482 24.7124 83.0353 23.8087C82.5224 22.8806 81.8263 22.1724 80.9471 21.6839C80.0923 21.1954 79.1153 20.9512 78.0163 20.9512C76.9172 20.9512 75.9281 21.1954 75.0488 21.6839C74.1696 22.1724 73.4735 22.8806 72.9606 23.8087C72.4477 24.7124 72.1913 25.7992 72.1913 27.0693C72.1913 28.3148 72.4477 29.4017 72.9606 30.3298C73.4735 31.2579 74.1696 31.9661 75.0488 32.4546C75.9281 32.9431 76.9172 33.1873 78.0163 33.1873ZM89.1367 36.8508V17.2877H93.4963V22.673L92.9834 21.0977C93.5696 19.7789 94.4855 18.7775 95.7311 18.0936C97.0011 17.4098 98.5764 17.0679 100.457 17.0679V21.4274C100.262 21.3786 100.078 21.3542 99.9075 21.3542C99.7365 21.3297 99.5655 21.3175 99.3946 21.3175C97.6605 21.3175 96.2806 21.8304 95.2548 22.8562C94.229 23.8576 93.7161 25.3596 93.7161 27.3623V36.8508H89.1367Z" fill="url(#paint0_linear_167_1064)"/>
<path d="M53.8317 40.8523V38.2878H54.3079V40.4493H55.6488V40.8523H53.8317ZM57.0322 40.8523V38.2878H57.5085V40.8523H57.0322ZM59.6456 39.4675H60.9241V39.8705H59.6456V39.4675ZM59.6859 40.8523H59.2096V38.2878H61.0817V38.6872H59.6859V40.8523ZM62.9893 39.3539H64.2642V39.7459H62.9893V39.3539ZM63.0259 40.453H64.473V40.8523H62.5497V38.2878H64.4217V38.6872H63.0259V40.453ZM68.8263 40.8889C68.6261 40.8889 68.4344 40.8608 68.2512 40.8047C68.068 40.7461 67.9227 40.6716 67.8152 40.5812L67.9801 40.2112C68.0827 40.2918 68.2097 40.3589 68.3611 40.4127C68.5125 40.4664 68.6676 40.4933 68.8263 40.4933C68.9607 40.4933 69.0694 40.4786 69.1524 40.4493C69.2354 40.42 69.2965 40.3809 69.3356 40.3321C69.3747 40.2808 69.3942 40.2234 69.3942 40.1599C69.3942 40.0817 69.3661 40.0195 69.3099 39.9731C69.2538 39.9242 69.1805 39.8863 69.0901 39.8595C69.0022 39.8302 68.9033 39.8033 68.7934 39.7789C68.6859 39.7545 68.5772 39.7264 68.4673 39.6946C68.3599 39.6604 68.2609 39.6177 68.1706 39.5664C68.0827 39.5127 68.0106 39.4418 67.9544 39.3539C67.8983 39.266 67.8702 39.1536 67.8702 39.0169C67.8702 38.8777 67.9068 38.7507 67.9801 38.6359C68.0558 38.5186 68.1694 38.4258 68.3208 38.3574C68.4746 38.2866 68.6688 38.2512 68.9033 38.2512C69.0571 38.2512 69.2098 38.2707 69.3612 38.3098C69.5126 38.3489 69.6445 38.4051 69.7569 38.4783L69.6067 38.8484C69.4919 38.78 69.3734 38.7299 69.2513 38.6981C69.1292 38.664 69.012 38.6469 68.8996 38.6469C68.7677 38.6469 68.6603 38.6627 68.5772 38.6945C68.4966 38.7262 68.4368 38.7678 68.3977 38.819C68.3611 38.8703 68.3428 38.929 68.3428 38.9949C68.3428 39.073 68.3696 39.1365 68.4234 39.1854C68.4795 39.2318 68.5516 39.2684 68.6395 39.2953C68.7299 39.3222 68.83 39.349 68.9399 39.3759C69.0498 39.4003 69.1585 39.4284 69.266 39.4602C69.3759 39.4919 69.4748 39.5334 69.5627 39.5847C69.6531 39.636 69.7251 39.7056 69.7789 39.7935C69.835 39.8815 69.8631 39.9926 69.8631 40.1269C69.8631 40.2637 69.8253 40.3907 69.7496 40.5079C69.6763 40.6227 69.5627 40.7155 69.4088 40.7864C69.255 40.8547 69.0608 40.8889 68.8263 40.8889ZM72.5298 40.8889C72.3344 40.8889 72.1525 40.8572 71.984 40.7937C71.8179 40.7277 71.6726 40.6361 71.548 40.5189C71.4259 40.3992 71.3306 40.2588 71.2622 40.0976C71.1939 39.9364 71.1597 39.7606 71.1597 39.5701C71.1597 39.3796 71.1939 39.2037 71.2622 39.0425C71.3306 38.8813 71.4271 38.7421 71.5517 38.6249C71.6762 38.5052 71.8215 38.4136 71.9876 38.3501C72.1537 38.2842 72.3356 38.2512 72.5335 38.2512C72.7435 38.2512 72.9352 38.2878 73.1087 38.3611C73.2821 38.4319 73.4286 38.5382 73.5483 38.6798L73.2405 38.9692C73.1477 38.8691 73.0439 38.7946 72.9291 38.7458C72.8143 38.6945 72.6898 38.6688 72.5555 38.6688C72.4211 38.6688 72.2978 38.6908 72.1854 38.7348C72.0755 38.7787 71.9791 38.841 71.896 38.9216C71.8154 39.0022 71.7519 39.0975 71.7055 39.2074C71.6616 39.3173 71.6396 39.4382 71.6396 39.5701C71.6396 39.702 71.6616 39.8228 71.7055 39.9328C71.7519 40.0427 71.8154 40.1379 71.896 40.2185C71.9791 40.2991 72.0755 40.3614 72.1854 40.4053C72.2978 40.4493 72.4211 40.4713 72.5555 40.4713C72.6898 40.4713 72.8143 40.4469 72.9291 40.398C73.0439 40.3467 73.1477 40.2698 73.2405 40.1672L73.5483 40.4603C73.4286 40.5995 73.2821 40.7058 73.1087 40.779C72.9352 40.8523 72.7423 40.8889 72.5298 40.8889ZM75.0121 40.8523V38.2878H75.4883V40.8523H75.0121ZM77.6291 39.3539H78.904V39.7459H77.6291V39.3539ZM77.6657 40.453H79.1128V40.8523H77.1894V38.2878H79.0615V38.6872H77.6657V40.453ZM80.6512 40.8523V38.2878H81.0432L82.6514 40.2625H82.4573V38.2878H82.9299V40.8523H82.5379L80.9296 38.8777H81.1238V40.8523H80.6512ZM85.8115 40.8889C85.6161 40.8889 85.4341 40.8572 85.2656 40.7937C85.0995 40.7277 84.9542 40.6361 84.8297 40.5189C84.7075 40.3992 84.6123 40.2588 84.5439 40.0976C84.4755 39.9364 84.4413 39.7606 84.4413 39.5701C84.4413 39.3796 84.4755 39.2037 84.5439 39.0425C84.6123 38.8813 84.7088 38.7421 84.8333 38.6249C84.9579 38.5052 85.1032 38.4136 85.2693 38.3501C85.4354 38.2842 85.6173 38.2512 85.8151 38.2512C86.0252 38.2512 86.2169 38.2878 86.3903 38.3611C86.5637 38.4319 86.7103 38.5382 86.8299 38.6798L86.5222 38.9692C86.4294 38.8691 86.3256 38.7946 86.2108 38.7458C86.096 38.6945 85.9715 38.6688 85.8371 38.6688C85.7028 38.6688 85.5795 38.6908 85.4671 38.7348C85.3572 38.7787 85.2607 38.841 85.1777 38.9216C85.0971 39.0022 85.0336 39.0975 84.9872 39.2074C84.9432 39.3173 84.9212 39.4382 84.9212 39.5701C84.9212 39.702 84.9432 39.8228 84.9872 39.9328C85.0336 40.0427 85.0971 40.1379 85.1777 40.2185C85.2607 40.2991 85.3572 40.3614 85.4671 40.4053C85.5795 40.4493 85.7028 40.4713 85.8371 40.4713C85.9715 40.4713 86.096 40.4469 86.2108 40.398C86.3256 40.3467 86.4294 40.2698 86.5222 40.1672L86.8299 40.4603C86.7103 40.5995 86.5637 40.7058 86.3903 40.779C86.2169 40.8523 86.024 40.8889 85.8115 40.8889ZM88.7334 39.3539H90.0083V39.7459H88.7334V39.3539ZM88.77 40.453H90.2171V40.8523H88.2937V38.2878H90.1658V38.6872H88.77V40.453ZM92.5505 40.8889C92.3502 40.8889 92.1585 40.8608 91.9753 40.8047C91.7921 40.7461 91.6468 40.6716 91.5393 40.5812L91.7042 40.2112C91.8068 40.2918 91.9338 40.3589 92.0852 40.4127C92.2366 40.4664 92.3917 40.4933 92.5505 40.4933C92.6848 40.4933 92.7935 40.4786 92.8765 40.4493C92.9595 40.42 93.0206 40.3809 93.0597 40.3321C93.0988 40.2808 93.1183 40.2234 93.1183 40.1599C93.1183 40.0817 93.0902 40.0195 93.034 39.9731C92.9779 39.9242 92.9046 39.8863 92.8142 39.8595C92.7263 39.8302 92.6274 39.8033 92.5175 39.7789C92.41 39.7545 92.3013 39.7264 92.1914 39.6946C92.084 39.6604 91.9851 39.6177 91.8947 39.5664C91.8068 39.5127 91.7347 39.4418 91.6785 39.3539C91.6224 39.266 91.5943 39.1536 91.5943 39.0169C91.5943 38.8777 91.6309 38.7507 91.7042 38.6359C91.7799 38.5186 91.8935 38.4258 92.0449 38.3574C92.1988 38.2866 92.3929 38.2512 92.6274 38.2512C92.7813 38.2512 92.9339 38.2707 93.0853 38.3098C93.2368 38.3489 93.3686 38.4051 93.481 38.4783L93.3308 38.8484C93.216 38.78 93.0975 38.7299 92.9754 38.6981C92.8533 38.664 92.7361 38.6469 92.6237 38.6469C92.4918 38.6469 92.3844 38.6627 92.3013 38.6945C92.2207 38.7262 92.1609 38.7678 92.1218 38.819C92.0852 38.8703 92.0669 38.929 92.0669 38.9949C92.0669 39.073 92.0937 39.1365 92.1475 39.1854C92.2036 39.2318 92.2757 39.2684 92.3636 39.2953C92.454 39.3222 92.5541 39.349 92.664 39.3759C92.7739 39.4003 92.8826 39.4284 92.9901 39.4602C93.1 39.4919 93.1989 39.5334 93.2868 39.5847C93.3772 39.636 93.4492 39.7056 93.503 39.7935C93.5591 39.8815 93.5872 39.9926 93.5872 40.1269C93.5872 40.2637 93.5494 40.3907 93.4737 40.5079C93.4004 40.6227 93.2868 40.7155 93.133 40.7864C92.9791 40.8547 92.7849 40.8889 92.5505 40.8889Z" fill="black"/>
<g clip-path="url(#clip0_167_1064)">
<path d="M4.20143 29.1516C6.52181 29.1516 8.40285 27.2706 8.40285 24.9502C8.40285 22.6298 6.52181 20.7488 4.20143 20.7488C1.88104 20.7488 0 22.6298 0 24.9502C0 27.2706 1.88104 29.1516 4.20143 29.1516Z" fill="#646AEC"/>
<path d="M14.9068 29.7646C16.3189 29.7646 17.4636 28.6199 17.4636 27.2079C17.4636 25.7958 16.3189 24.6511 14.9068 24.6511C13.4948 24.6511 12.3501 25.7958 12.3501 27.2079C12.3501 28.6199 13.4948 29.7646 14.9068 29.7646Z" fill="#1567E0"/>
<path d="M17.3441 20.7637C20.4655 20.7637 22.9959 18.2333 22.9959 15.1119C22.9959 11.9906 20.4655 9.46021 17.3441 9.46021C14.2228 9.46021 11.6924 11.9906 11.6924 15.1119C11.6924 18.2333 14.2228 20.7637 17.3441 20.7637Z" fill="#6AA0F1"/>
<path d="M12.35 43.4007C15.4714 43.4007 18.0017 40.8703 18.0017 37.7489C18.0017 34.6275 15.4714 32.0972 12.35 32.0972C9.22861 32.0972 6.69824 34.6275 6.69824 37.7489C6.69824 40.8703 9.22861 43.4007 12.35 43.4007Z" fill="#6AA0F1"/>
<path d="M29.8734 40.3055C35.1334 40.3055 39.3976 36.0414 39.3976 30.7813C39.3976 25.5212 35.1334 21.2571 29.8734 21.2571C24.6133 21.2571 20.3491 25.5212 20.3491 30.7813C20.3491 36.0414 24.6133 40.3055 29.8734 40.3055Z" fill="#373EE7"/>
</g>
<defs>
<linearGradient id="paint0_linear_167_1064" x1="102.137" y1="-6.84932" x2="62.1683" y2="51.2074" gradientUnits="userSpaceOnUse">
<stop offset="0.171875" stop-color="#373EE7"/>
<stop offset="1" stop-color="#3D84ED"/>
</linearGradient>
<clipPath id="clip0_167_1064">
<rect width="39.3828" height="33.9403" fill="white" transform="translate(0 9.46021)"/>
</clipPath>
</defs>
</svg>
