<svg width="124" height="55" viewBox="0 0 124 55" fill="none" xmlns="http://www.w3.org/2000/svg">
<path d="M69.5473 44.0584C67.6244 44.0584 65.8643 43.6147 64.2668 42.7272C62.6989 41.8397 61.4417 40.5085 60.495 38.7335C59.5779 36.929 59.1194 34.6511 59.1194 31.8999C59.1194 29.1192 59.5632 26.8413 60.4506 25.0663C61.3677 23.2914 62.6102 21.9749 64.1781 21.117C65.7459 20.2295 67.5357 19.7858 69.5473 19.7858C71.8844 19.7858 73.9404 20.2887 75.7153 21.2945C77.5199 22.3003 78.9398 23.7055 79.9752 25.5101C81.0402 27.3146 81.5727 29.4446 81.5727 31.8999C81.5727 34.3553 81.0402 36.5 79.9752 38.3342C78.9398 40.1387 77.5199 41.5439 75.7153 42.5497C73.9404 43.5555 71.8844 44.0584 69.5473 44.0584ZM56.4126 52.3564V20.0521H61.6931V25.6432L61.5156 31.9443L61.9594 38.2454V52.3564H56.4126ZM68.9261 39.3104C70.2573 39.3104 71.4406 39.0146 72.476 38.4229C73.541 37.8313 74.3841 36.9734 75.0053 35.8492C75.6266 34.7251 75.9372 33.4086 75.9372 31.8999C75.9372 30.3616 75.6266 29.0452 75.0053 27.9506C74.3841 26.8265 73.541 25.9686 72.476 25.3769C71.4406 24.7853 70.2573 24.4895 68.9261 24.4895C67.5949 24.4895 66.3968 24.7853 65.3318 25.3769C64.2668 25.9686 63.4237 26.8265 62.8025 27.9506C62.1812 29.0452 61.8706 30.3616 61.8706 31.8999C61.8706 33.4086 62.1812 34.7251 62.8025 35.8492C63.4237 36.9734 64.2668 37.8313 65.3318 38.4229C66.3968 39.0146 67.5949 39.3104 68.9261 39.3104ZM95.5304 44.0584C93.5188 44.0584 91.729 43.6147 90.1612 42.7272C88.5933 41.8397 87.3508 40.5085 86.4337 38.7335C85.5463 36.929 85.1025 34.6511 85.1025 31.8999C85.1025 29.1192 85.561 26.8413 86.4781 25.0663C87.4248 23.2914 88.682 21.9749 90.2499 21.117C91.8474 20.2295 93.6075 19.7858 95.5304 19.7858C97.8674 19.7858 99.9234 20.2887 101.698 21.2945C103.503 22.3003 104.923 23.7055 105.958 25.5101C107.023 27.3146 107.556 29.4446 107.556 31.8999C107.556 34.3553 107.023 36.4852 105.958 38.2898C104.923 40.0943 103.503 41.5143 101.698 42.5497C99.9234 43.5555 97.8674 44.0584 95.5304 44.0584ZM82.3957 43.7478V10.8222H87.9425V25.5544L87.4987 31.8556L87.6762 38.1567V43.7478H82.3957ZM94.9092 39.3104C96.2404 39.3104 97.4237 39.0146 98.4591 38.4229C99.5241 37.8313 100.367 36.9734 100.988 35.8492C101.61 34.7251 101.92 33.4086 101.92 31.8999C101.92 30.3616 101.61 29.0452 100.988 27.9506C100.367 26.8265 99.5241 25.9686 98.4591 25.3769C97.4237 24.7853 96.2404 24.4895 94.9092 24.4895C93.578 24.4895 92.3799 24.7853 91.3149 25.3769C90.2499 25.9686 89.4068 26.8265 88.7856 27.9506C88.1643 29.0452 87.8537 30.3616 87.8537 31.8999C87.8537 33.4086 88.1643 34.7251 88.7856 35.8492C89.4068 36.9734 90.2499 37.8313 91.3149 38.4229C92.3799 39.0146 93.578 39.3104 94.9092 39.3104ZM108.379 43.7478V20.0521H113.659V26.575L113.038 24.667C113.748 23.0695 114.857 21.8566 116.366 21.0283C117.904 20.2 119.813 19.7858 122.09 19.7858V25.0663C121.854 25.0072 121.632 24.9776 121.425 24.9776C121.218 24.948 121.011 24.9332 120.804 24.9332C118.703 24.9332 117.032 25.5544 115.789 26.7969C114.547 28.0098 113.926 29.8291 113.926 32.2549V43.7478H108.379Z" fill="white"/>
<path d="M65.6158 49.5657V46.4595H66.1927V49.0776H67.8168V49.5657H65.6158ZM69.4925 49.5657V46.4595H70.0694V49.5657H69.4925ZM72.6579 47.8883H74.2065V48.3764H72.6579V47.8883ZM72.7067 49.5657H72.1298V46.4595H74.3973V46.9432H72.7067V49.5657ZM76.708 47.7508H78.2522V48.2256H76.708V47.7508ZM76.7523 49.082H78.5051V49.5657H76.1755V46.4595H78.443V46.9432H76.7523V49.082ZM83.778 49.61C83.5355 49.61 83.3032 49.576 83.0814 49.508C82.8595 49.437 82.6835 49.3468 82.5533 49.2373L82.753 48.7891C82.8773 48.8868 83.0311 48.9681 83.2145 49.0332C83.3979 49.0983 83.5858 49.1308 83.778 49.1308C83.9408 49.1308 84.0724 49.1131 84.173 49.0776C84.2736 49.0421 84.3475 48.9947 84.3948 48.9356C84.4422 48.8734 84.4658 48.8039 84.4658 48.727C84.4658 48.6323 84.4318 48.5569 84.3638 48.5007C84.2957 48.4415 84.207 48.3957 84.0975 48.3631C83.991 48.3276 83.8712 48.2951 83.7381 48.2655C83.6079 48.2359 83.4763 48.2019 83.3432 48.1635C83.213 48.122 83.0932 48.0703 82.9837 48.0081C82.8773 47.9431 82.79 47.8573 82.7219 47.7508C82.6539 47.6443 82.6199 47.5082 82.6199 47.3425C82.6199 47.1739 82.6643 47.0201 82.753 46.881C82.8447 46.739 82.9823 46.6266 83.1657 46.5438C83.3521 46.458 83.5872 46.4151 83.8712 46.4151C84.0576 46.4151 84.2425 46.4388 84.4259 46.4861C84.6093 46.5334 84.7691 46.6015 84.9051 46.6902L84.7232 47.1384C84.5842 47.0556 84.4407 46.9949 84.2928 46.9565C84.1449 46.9151 84.0029 46.8944 83.8668 46.8944C83.707 46.8944 83.5769 46.9136 83.4763 46.952C83.3787 46.9905 83.3062 47.0408 83.2589 47.1029C83.2145 47.165 83.1923 47.236 83.1923 47.3159C83.1923 47.4106 83.2248 47.4875 83.2899 47.5467C83.358 47.6029 83.4452 47.6472 83.5517 47.6798C83.6612 47.7123 83.7825 47.7449 83.9156 47.7774C84.0487 47.807 84.1804 47.841 84.3105 47.8795C84.4437 47.9179 84.5635 47.9682 84.67 48.0303C84.7794 48.0925 84.8667 48.1768 84.9318 48.2833C84.9998 48.3898 85.0338 48.5244 85.0338 48.6871C85.0338 48.8527 84.988 49.0066 84.8963 49.1486C84.8075 49.2876 84.67 49.4 84.4836 49.4858C84.2972 49.5686 84.062 49.61 83.778 49.61ZM88.2638 49.61C88.0272 49.61 87.8068 49.5716 87.6027 49.4947C87.4015 49.4148 87.2255 49.3039 87.0746 49.1619C86.9267 49.0169 86.8113 48.8468 86.7285 48.6516C86.6457 48.4563 86.6043 48.2433 86.6043 48.0126C86.6043 47.7818 86.6457 47.5688 86.7285 47.3736C86.8113 47.1783 86.9282 47.0097 87.0791 46.8677C87.2299 46.7228 87.4059 46.6118 87.6071 46.5349C87.8083 46.4551 88.0287 46.4151 88.2683 46.4151C88.5227 46.4151 88.7549 46.4595 88.965 46.5482C89.175 46.634 89.3525 46.7627 89.4974 46.9343L89.1247 47.2848C89.0123 47.1636 88.8866 47.0733 88.7475 47.0142C88.6085 46.952 88.4576 46.921 88.2949 46.921C88.1322 46.921 87.9828 46.9476 87.8467 47.0009C87.7136 47.0541 87.5968 47.1295 87.4962 47.2272C87.3986 47.3248 87.3216 47.4402 87.2654 47.5733C87.2122 47.7064 87.1856 47.8528 87.1856 48.0126C87.1856 48.1723 87.2122 48.3188 87.2654 48.4519C87.3216 48.585 87.3986 48.7004 87.4962 48.798C87.5968 48.8956 87.7136 48.9711 87.8467 49.0243C87.9828 49.0776 88.1322 49.1042 88.2949 49.1042C88.4576 49.1042 88.6085 49.0746 88.7475 49.0154C88.8866 48.9533 89.0123 48.8601 89.1247 48.7359L89.4974 49.0909C89.3525 49.2595 89.175 49.3882 88.965 49.4769C88.7549 49.5657 88.5212 49.61 88.2638 49.61ZM91.2705 49.5657V46.4595H91.8473V49.5657H91.2705ZM94.4403 47.7508H95.9845V48.2256H94.4403V47.7508ZM94.4846 49.082H96.2374V49.5657H93.9078V46.4595H96.1753V46.9432H94.4846V49.082ZM98.1008 49.5657V46.4595H98.5756L100.524 48.8513H100.288V46.4595H100.861V49.5657H100.386L98.438 47.1739H98.6732V49.5657H98.1008ZM104.351 49.61C104.115 49.61 103.894 49.5716 103.69 49.4947C103.489 49.4148 103.313 49.3039 103.162 49.1619C103.014 49.0169 102.899 48.8468 102.816 48.6516C102.733 48.4563 102.692 48.2433 102.692 48.0126C102.692 47.7818 102.733 47.5688 102.816 47.3736C102.899 47.1783 103.016 47.0097 103.166 46.8677C103.317 46.7228 103.493 46.6118 103.694 46.5349C103.896 46.4551 104.116 46.4151 104.356 46.4151C104.61 46.4151 104.842 46.4595 105.052 46.5482C105.262 46.634 105.44 46.7627 105.585 46.9343L105.212 47.2848C105.1 47.1636 104.974 47.0733 104.835 47.0142C104.696 46.952 104.545 46.921 104.382 46.921C104.22 46.921 104.07 46.9476 103.934 47.0009C103.801 47.0541 103.684 47.1295 103.584 47.2272C103.486 47.3248 103.409 47.4402 103.353 47.5733C103.3 47.7064 103.273 47.8528 103.273 48.0126C103.273 48.1723 103.3 48.3188 103.353 48.4519C103.409 48.585 103.486 48.7004 103.584 48.798C103.684 48.8956 103.801 48.9711 103.934 49.0243C104.07 49.0776 104.22 49.1042 104.382 49.1042C104.545 49.1042 104.696 49.0746 104.835 49.0154C104.974 48.9533 105.1 48.8601 105.212 48.7359L105.585 49.0909C105.44 49.2595 105.262 49.3882 105.052 49.4769C104.842 49.5657 104.609 49.61 104.351 49.61ZM107.89 47.7508H109.435V48.2256H107.89V47.7508ZM107.935 49.082H109.687V49.5657H107.358V46.4595H109.625V46.9432H107.935V49.082ZM112.514 49.61C112.271 49.61 112.039 49.576 111.817 49.508C111.595 49.437 111.419 49.3468 111.289 49.2373L111.489 48.7891C111.613 48.8868 111.767 48.9681 111.95 49.0332C112.134 49.0983 112.321 49.1308 112.514 49.1308C112.676 49.1308 112.808 49.1131 112.909 49.0776C113.009 49.0421 113.083 48.9947 113.131 48.9356C113.178 48.8734 113.202 48.8039 113.202 48.727C113.202 48.6323 113.167 48.5569 113.099 48.5007C113.031 48.4415 112.943 48.3957 112.833 48.3631C112.727 48.3276 112.607 48.2951 112.474 48.2655C112.344 48.2359 112.212 48.2019 112.079 48.1635C111.949 48.122 111.829 48.0703 111.719 48.0081C111.613 47.9431 111.526 47.8573 111.458 47.7508C111.39 47.6443 111.356 47.5082 111.356 47.3425C111.356 47.1739 111.4 47.0201 111.489 46.881C111.58 46.739 111.718 46.6266 111.901 46.5438C112.088 46.458 112.323 46.4151 112.607 46.4151C112.793 46.4151 112.978 46.4388 113.162 46.4861C113.345 46.5334 113.505 46.6015 113.641 46.6902L113.459 47.1384C113.32 47.0556 113.176 46.9949 113.028 46.9565C112.881 46.9151 112.739 46.8944 112.602 46.8944C112.443 46.8944 112.313 46.9136 112.212 46.952C112.114 46.9905 112.042 47.0408 111.995 47.1029C111.95 47.165 111.928 47.236 111.928 47.3159C111.928 47.4106 111.961 47.4875 112.026 47.5467C112.094 47.6029 112.181 47.6472 112.287 47.6798C112.397 47.7123 112.518 47.7449 112.651 47.7774C112.784 47.807 112.916 47.841 113.046 47.8795C113.179 47.9179 113.299 47.9682 113.406 48.0303C113.515 48.0925 113.602 48.1768 113.667 48.2833C113.735 48.3898 113.77 48.5244 113.77 48.6871C113.77 48.8527 113.724 49.0066 113.632 49.1486C113.543 49.2876 113.406 49.4 113.219 49.4858C113.033 49.5686 112.798 49.61 112.514 49.61Z" fill="white"/>
<g clip-path="url(#clip0_530_3107)">
<path d="M5.16073 35.027C7.97128 35.027 10.2497 32.7486 10.2497 29.9381C10.2497 27.1275 7.97128 24.8491 5.16073 24.8491C2.35018 24.8491 0.0717773 27.1275 0.0717773 29.9381C0.0717773 32.7486 2.35018 35.027 5.16073 35.027Z" fill="white"/>
<path d="M18.1276 35.7694C19.8379 35.7694 21.2244 34.3829 21.2244 32.6725C21.2244 30.9622 19.8379 29.5757 18.1276 29.5757C16.4173 29.5757 15.0308 30.9622 15.0308 32.6725C15.0308 34.3829 16.4173 35.7694 18.1276 35.7694Z" fill="white"/>
<path d="M21.08 24.8671C24.8608 24.8671 27.9256 21.8022 27.9256 18.0214C27.9256 14.2407 24.8608 11.1758 21.08 11.1758C17.2993 11.1758 14.2344 14.2407 14.2344 18.0214C14.2344 21.8022 17.2993 24.8671 21.08 24.8671Z" fill="white"/>
<path d="M15.0307 52.286C18.8114 52.286 21.8763 49.2211 21.8763 45.4404C21.8763 41.6596 18.8114 38.5947 15.0307 38.5947C11.25 38.5947 8.18506 41.6596 8.18506 45.4404C8.18506 49.2211 11.25 52.286 15.0307 52.286Z" fill="white"/>
<path d="M36.2559 48.5372C42.6271 48.5372 47.792 43.3723 47.792 37.001C47.792 30.6298 42.6271 25.4648 36.2559 25.4648C29.8846 25.4648 24.7197 30.6298 24.7197 37.001C24.7197 43.3723 29.8846 48.5372 36.2559 48.5372Z" fill="white"/>
</g>
<defs>
<clipPath id="clip0_530_3107">
<rect width="47.7021" height="41.11" fill="white" transform="translate(0.0717773 11.1758)"/>
</clipPath>
</defs>
</svg>
