<svg width="40" height="41" viewBox="0 0 40 41" fill="none" xmlns="http://www.w3.org/2000/svg">
<path d="M14.6668 18.8262C12.8987 18.8262 11.203 18.1238 9.95278 16.8736C8.70254 15.6233 8.00016 13.9276 8.00016 12.1595V6.82617C8.00016 6.47255 8.14064 6.13341 8.39069 5.88336C8.64074 5.63331 8.97987 5.49284 9.3335 5.49284H10.6668C11.0205 5.49284 11.3596 5.35236 11.6096 5.10231C11.8597 4.85227 12.0002 4.51313 12.0002 4.15951C12.0002 3.80588 11.8597 3.46674 11.6096 3.2167C11.3596 2.96665 11.0205 2.82617 10.6668 2.82617H9.3335C8.27263 2.82617 7.25521 3.2476 6.50507 3.99774C5.75492 4.74789 5.3335 5.76531 5.3335 6.82617V12.1595C5.33521 13.6658 5.70253 15.1492 6.4039 16.4823C7.10527 17.8153 8.11973 18.9583 9.36016 19.8128C10.5519 20.8635 11.5184 22.1448 12.2013 23.5794C12.8842 25.0139 13.2694 26.572 13.3335 28.1595C13.3335 30.6349 14.3168 33.0088 16.0672 34.7592C17.8175 36.5095 20.1915 37.4928 22.6668 37.4928C25.1422 37.4928 27.5162 36.5095 29.2665 34.7592C31.0168 33.0088 32.0002 30.6349 32.0002 28.1595V26.6395C33.257 26.315 34.3524 25.5432 35.081 24.4688C35.8095 23.3945 36.1212 22.0913 35.9577 20.8035C35.7941 19.5158 35.1665 18.3319 34.1925 17.4737C33.2185 16.6156 31.9649 16.1422 30.6668 16.1422C29.3687 16.1422 28.1152 16.6156 27.1412 17.4737C26.1672 18.3319 25.5396 19.5158 25.376 20.8035C25.2124 22.0913 25.5241 23.3945 26.2527 24.4688C26.9812 25.5432 28.0766 26.315 29.3335 26.6395V28.1595C29.3335 29.9276 28.6311 31.6233 27.3809 32.8736C26.1306 34.1238 24.4349 34.8262 22.6668 34.8262C20.8987 34.8262 19.203 34.1238 17.9528 32.8736C16.7025 31.6233 16.0002 29.9276 16.0002 28.1595C16.0677 26.57 16.457 25.0108 17.1445 23.5761C17.832 22.1414 18.8035 20.8612 20.0002 19.8128C21.2357 18.9553 22.2449 17.8111 22.9416 16.4782C23.6382 15.1453 24.0014 13.6635 24.0002 12.1595V6.82617C24.0002 5.76531 23.5787 4.74789 22.8286 3.99774C22.0784 3.2476 21.061 2.82617 20.0002 2.82617H18.6668C18.3132 2.82617 17.9741 2.96665 17.724 3.2167C17.474 3.46674 17.3335 3.80588 17.3335 4.15951C17.3335 4.51313 17.474 4.85227 17.724 5.10231C17.9741 5.35236 18.3132 5.49284 18.6668 5.49284H20.0002C20.3538 5.49284 20.6929 5.63331 20.943 5.88336C21.193 6.13341 21.3335 6.47255 21.3335 6.82617V12.1595C21.3335 13.035 21.1611 13.9019 20.826 14.7107C20.491 15.5196 19.9999 16.2545 19.3809 16.8736C18.7618 17.4926 18.0269 17.9837 17.2181 18.3187C16.4092 18.6537 15.5423 18.8262 14.6668 18.8262ZM30.6668 24.1595C29.9596 24.1595 29.2813 23.8786 28.7812 23.3785C28.2811 22.8784 28.0002 22.2001 28.0002 21.4928C28.0002 20.7856 28.2811 20.1073 28.7812 19.6072C29.2813 19.1071 29.9596 18.8262 30.6668 18.8262C31.3741 18.8262 32.0524 19.1071 32.5524 19.6072C33.0525 20.1073 33.3335 20.7856 33.3335 21.4928C33.3335 22.2001 33.0525 22.8784 32.5524 23.3785C32.0524 23.8786 31.3741 24.1595 30.6668 24.1595Z" fill="#111111" fill-opacity="0.8"/>
</svg>
