<svg width="7" height="11" viewBox="0 0 7 11" fill="none" xmlns="http://www.w3.org/2000/svg">
<path d="M0.652669 10.5555C0.51378 10.4166 0.444336 10.2522 0.444336 10.0622C0.444336 9.87254 0.51378 9.70828 0.652669 9.56939L4.72211 5.49995L0.63878 1.41661C0.509151 1.28698 0.444336 1.12495 0.444336 0.930501C0.444336 0.736057 0.51378 0.56939 0.652669 0.430501C0.791558 0.291612 0.956003 0.222168 1.146 0.222168C1.33563 0.222168 1.49989 0.291612 1.63878 0.430501L6.30545 5.11106C6.361 5.16661 6.40045 5.2268 6.42378 5.29161C6.44674 5.35643 6.45823 5.42587 6.45823 5.49995C6.45823 5.57402 6.44674 5.64346 6.42378 5.70828C6.40045 5.77309 6.361 5.83328 6.30545 5.88883L1.62489 10.5694C1.49526 10.699 1.33563 10.7638 1.146 10.7638C0.956003 10.7638 0.791558 10.6944 0.652669 10.5555Z" fill="white"/>
</svg>
