<svg width="25" height="23" viewBox="0 0 25 23" fill="none" xmlns="http://www.w3.org/2000/svg">
<path d="M23.4992 17.7581C24.1578 16.5287 24.5067 15.1573 24.5155 13.7627C24.5243 12.368 24.1928 10.9923 23.5497 9.75477C22.9066 8.51721 21.9714 7.45519 20.8251 6.66077C19.6789 5.86635 18.3561 5.36352 16.9716 5.19586C16.5157 4.13262 15.8494 3.17261 15.0128 2.37363C14.1761 1.57464 13.1865 0.953212 12.1034 0.546737C11.0203 0.140263 9.86616 -0.0428479 8.71045 0.00842739C7.55473 0.0597027 6.42134 0.344304 5.3785 0.845099C4.33566 1.34589 3.40493 2.05253 2.64235 2.92246C1.87977 3.79239 1.30111 4.80764 0.941189 5.90708C0.58127 7.00652 0.44754 8.16742 0.548051 9.3199C0.648562 10.4724 0.981235 11.5926 1.52604 12.6131L0.86149 14.9284C0.784466 15.1859 0.778555 15.4595 0.844381 15.7201C0.910207 15.9807 1.04532 16.2187 1.2354 16.4088C1.42547 16.5988 1.66344 16.734 1.92406 16.7998C2.18469 16.8656 2.45827 16.8597 2.71581 16.7827L5.03103 16.1181C5.97132 16.6193 6.99602 16.9427 8.05368 17.0721C8.52085 18.167 9.21087 19.1526 10.0798 19.9662C10.9487 20.7798 11.9776 21.4036 13.1008 21.7978C14.224 22.192 15.417 22.3481 16.6038 22.256C17.7906 22.1639 18.9452 21.8258 19.9942 21.2631L22.3094 21.9276C22.567 22.0046 22.8405 22.0105 23.1012 21.9447C23.3618 21.8789 23.5998 21.7438 23.7898 21.5537C23.9799 21.3636 24.115 21.1257 24.1809 20.865C24.2467 20.6044 24.2408 20.3308 24.1637 20.0733L23.4992 17.7581ZM21.8485 17.2114C21.7861 17.309 21.7453 17.4187 21.7286 17.5333C21.712 17.6479 21.72 17.7647 21.7521 17.876L22.4166 20.1805L20.1228 19.5159C20.0099 19.4829 19.8912 19.4745 19.7748 19.4911C19.6583 19.5078 19.5467 19.5491 19.4476 19.6124C18.6618 20.076 17.7917 20.3788 16.8878 20.503C15.984 20.6273 15.0644 20.5706 14.1827 20.3362C13.301 20.1018 12.4747 19.6944 11.7519 19.1377C11.029 18.581 10.4241 17.8861 9.97231 17.0935C12.0798 16.8689 14.03 15.8737 15.4484 14.2989C16.8669 12.7242 17.6536 10.6809 17.6575 8.56151C17.6547 8.04756 17.6081 7.53479 17.5182 7.02875C19.0225 7.38375 20.3628 8.23636 21.3219 9.44839C22.281 10.6604 22.8027 12.1608 22.8025 13.7064C22.801 14.9387 22.4718 16.1484 21.8485 17.2114Z" fill="white"/>
</svg>
