<svg width="19" height="18" viewBox="0 0 19 18" fill="none" xmlns="http://www.w3.org/2000/svg">
<path d="M17.0752 16.1249L2.3002 1.2749L1.3252 2.2499L6.5002 7.4249L3.5752 10.3499L5.1502 11.9249L2.8252 14.2499V16.3499L6.2002 12.9749L7.7752 14.5499L10.7002 11.6249L16.1002 17.0249L17.0752 16.1249ZM8.9002 11.3999L7.85019 12.4499L5.7502 10.3499L7.6252 8.4749L8.67519 9.5249L7.85019 10.3499L8.9002 11.3999ZM9.42519 6.5249L8.3752 5.4749L11.0002 2.9249L12.5752 4.4999L13.6252 3.4499L12.5752 2.3999L13.6252 1.3499L16.8502 4.4999L15.8002 5.5499L14.6752 4.4999L13.6252 5.5499L15.2002 7.1249L12.6502 9.7499L10.5502 7.6499L11.0002 7.1249L12.0502 8.1749L13.1002 7.1249L11.0002 5.0249L9.42519 6.5249Z" fill="black"/>
</svg>
