<svg width="18" height="18" viewBox="0 0 18 18" fill="none" xmlns="http://www.w3.org/2000/svg">
<path d="M13.0516 8.69815H11.0218V6.323C11.4331 6.00043 11.7657 5.58853 11.9943 5.11846C12.2229 4.6484 12.3416 4.13249 12.3415 3.60978C12.3415 1.7029 10.7963 0.157715 8.89023 0.157715C7.32367 0.157715 5.88002 1.33306 5.5802 2.62878C5.51327 2.91565 5.43789 3.66828 5.43789 3.66828L4.71817 5.48431C4.70042 5.52639 4.69331 5.5722 4.69748 5.61769C4.70165 5.66318 4.71697 5.70693 4.74208 5.74508C4.7672 5.78324 4.80132 5.81461 4.84145 5.83643C4.88158 5.85825 4.92647 5.86985 4.97214 5.87018C5.01016 5.79187 5.07299 5.72832 5.15086 5.68941C5.22874 5.6505 5.31728 5.63841 5.40273 5.65503C5.61761 5.6944 5.75795 5.90253 5.71548 6.11712C5.70179 6.18835 5.6685 6.25435 5.61937 6.30771C5.57023 6.36107 5.50719 6.39967 5.43733 6.41918V6.83487C5.4374 7.19575 5.58077 7.54183 5.83593 7.79704C6.09108 8.05225 6.43714 8.19569 6.79802 8.19584H7.33886V8.69815H5.14005C2.61302 8.69618 0.958984 10.5524 0.958984 12.4492V17.7423L3.74083 17.7412V13.1588H4.54183V17.7412L13.4195 17.7423V13.1591H14.2405V17.7423L16.9624 17.7412L16.9644 11.9494C16.9646 10.5066 15.5359 8.69646 13.0508 8.69815H13.0516ZM6.27377 5.11587C6.20627 5.171 6.11711 5.20137 6.03161 5.20137C5.90898 5.20137 5.79283 5.14625 5.71942 5.04809C5.68662 5.00777 5.66237 4.96119 5.64815 4.91119C5.63393 4.8612 5.63005 4.80883 5.63673 4.75728C5.64883 4.64956 5.70367 4.55815 5.78636 4.49346C5.95202 4.36184 6.21245 4.3925 6.34098 4.55815C6.40848 4.64365 6.43605 4.74771 6.42367 4.85206C6.41158 4.95612 6.35927 5.05118 6.27377 5.11587ZM7.45248 4.83996V4.84896L7.36642 4.84306C7.26178 4.8339 7.16503 4.78365 7.09734 4.70332C7.02966 4.62299 6.99656 4.51911 7.0053 4.41443C7.0146 4.31561 7.06014 4.22372 7.13315 4.15647C7.20616 4.08923 7.30148 4.05138 7.40073 4.05021L7.4342 4.05331C7.53827 4.06231 7.63614 4.11125 7.70392 4.19084C7.77086 4.27409 7.80489 4.37506 7.79533 4.48221C7.78783 4.57212 7.74973 4.65673 7.68739 4.72193C7.62505 4.78714 7.54224 4.829 7.45277 4.84053L7.45248 4.83996ZM8.31255 5.3389C8.2822 5.29693 8.26065 5.24926 8.2492 5.19876C8.23774 5.14825 8.23662 5.09595 8.24589 5.045C8.25437 4.99343 8.2731 4.94409 8.30097 4.89989C8.32884 4.85569 8.3653 4.81752 8.40817 4.78765C8.57973 4.66503 8.8368 4.71115 8.95942 4.88215C9.01976 4.9685 9.04362 5.07516 9.02582 5.17899C9.00802 5.28282 8.95001 5.37545 8.86436 5.43678C8.79686 5.4829 8.71727 5.50737 8.63458 5.50737C8.50605 5.50737 8.38623 5.44634 8.31283 5.33862L8.31255 5.3389ZM8.9957 8.3435C8.89107 8.3432 8.7908 8.3015 8.71681 8.22751C8.64282 8.15352 8.60112 8.05326 8.60083 7.94862C8.60554 7.84657 8.64939 7.75027 8.72327 7.67971C8.79715 7.60916 8.89538 7.5698 8.99753 7.5698C9.09969 7.5698 9.19791 7.60916 9.2718 7.67971C9.34568 7.75027 9.38953 7.84657 9.39423 7.94862C9.39423 8.16575 9.21648 8.3435 8.9957 8.3435ZM8.9957 6.89168C8.94363 6.89146 8.8921 6.88099 8.84407 6.86085C8.79605 6.84072 8.75245 6.81132 8.71579 6.77434C8.67912 6.73736 8.65009 6.69352 8.63037 6.64532C8.61064 6.59712 8.60061 6.54551 8.60083 6.49343C8.60105 6.44136 8.61153 6.38983 8.63166 6.3418C8.65179 6.29378 8.68119 6.25018 8.71817 6.21352C8.75515 6.17685 8.79899 6.14782 8.84719 6.1281C8.89539 6.10837 8.947 6.09834 8.99908 6.09856C9.10425 6.09901 9.20494 6.14122 9.279 6.2159C9.35305 6.29059 9.3944 6.39163 9.39395 6.49681C9.39351 6.60198 9.3513 6.70267 9.27661 6.77673C9.20192 6.85078 9.10088 6.89213 8.9957 6.89168ZM10.6615 10.3449C12.1021 10.2948 12.9248 13.5292 12.4286 16.5492C12.137 17.8306 11.3725 16.5158 10.7006 16.4024C9.9573 16.277 9.53852 16.1904 9.50336 15.8008C9.37427 14.3901 9.91511 10.3722 10.6615 10.3449ZM8.48186 15.7902C8.44642 16.1786 8.02877 16.2649 7.28486 16.3901C6.61323 16.5034 5.81111 17.895 5.55686 16.5372C5.0613 13.5165 5.88452 10.2822 7.32311 10.3336C8.07095 10.3612 8.61095 14.378 8.48186 15.7902ZM9.51967 11.1518C9.44706 11.1513 9.37594 11.1312 9.31388 11.0935C9.25182 11.0558 9.20115 11.002 9.16727 10.9377C9.11922 10.8446 9.11 10.7362 9.14162 10.6363C9.17324 10.5364 9.24313 10.453 9.33602 10.4045C9.52558 10.3063 9.77364 10.3859 9.87208 10.5732C9.92045 10.6647 9.93002 10.7718 9.89598 10.8731C9.88133 10.9229 9.8567 10.9693 9.82358 11.0094C9.79047 11.0495 9.74955 11.0824 9.70333 11.1062C9.64705 11.1367 9.58397 11.1525 9.51995 11.1521L9.51967 11.1518ZM8.9957 9.79812C8.90685 9.79772 8.82068 9.76768 8.75083 9.71276C8.68098 9.65784 8.63146 9.58118 8.61011 9.49493C8.59812 9.4442 8.59626 9.39159 8.60466 9.34014C8.61306 9.28869 8.63154 9.23941 8.65905 9.19512C8.71417 9.10315 8.80023 9.04212 8.9043 9.01737C9.11214 8.96534 9.32927 9.09978 9.38158 9.30818C9.39561 9.36653 9.39623 9.4273 9.38339 9.48592C9.37055 9.54454 9.34458 9.59949 9.30743 9.64662C9.27029 9.69376 9.22294 9.73186 9.16894 9.75805C9.11495 9.78424 9.05571 9.79813 8.9957 9.79812ZM8.4723 11.1518C8.40434 11.1517 8.33754 11.1342 8.27836 11.1007C8.21919 11.0673 8.16964 11.0192 8.13451 10.961C8.09939 10.9028 8.07987 10.8366 8.07785 10.7686C8.07583 10.7007 8.09138 10.6334 8.12298 10.5732C8.22114 10.3859 8.4692 10.3063 8.65595 10.4045C8.75102 10.4534 8.81795 10.5361 8.85227 10.6371C8.88292 10.7381 8.87336 10.8452 8.82442 10.9403C8.79119 11.0047 8.74067 11.0586 8.67852 11.0959C8.61637 11.1332 8.54506 11.1525 8.47258 11.1515L8.4723 11.1518Z" fill="black"/>
<path d="M11.4548 16.3058C11.5926 16.3058 11.724 16.2318 11.7946 16.1162C11.8488 16.026 11.865 15.918 11.8399 15.8158C11.8147 15.7136 11.75 15.6256 11.6601 15.5709C11.4796 15.4609 11.2253 15.5284 11.1148 15.7059C11.0628 15.7973 11.0445 15.9014 11.0723 16.006C11.0968 16.1103 11.1609 16.1955 11.2532 16.2507C11.3139 16.2878 11.3842 16.3058 11.4548 16.3058ZM11.868 14.9308C12.0792 14.9308 12.2536 14.7629 12.2626 14.5516C12.2721 14.3309 12.1006 14.1472 11.868 14.1376C11.6531 14.1376 11.479 14.3064 11.4697 14.5173C11.4666 14.6245 11.5032 14.7254 11.5738 14.8022C11.6475 14.8787 11.7456 14.9249 11.8525 14.9308H11.868ZM11.5676 13.5251C11.632 13.5251 11.6902 13.5102 11.7453 13.4826C11.7919 13.4596 11.8334 13.4276 11.8676 13.3884C11.9017 13.3493 11.9278 13.3038 11.9443 13.2546C11.9607 13.2053 11.9673 13.1533 11.9637 13.1015C11.96 13.0497 11.9461 12.9991 11.9228 12.9527C11.8308 12.7626 11.5862 12.6768 11.3932 12.7722C11.299 12.8193 11.2274 12.902 11.1941 13.0019C11.1606 13.1029 11.1665 13.2101 11.2158 13.3051C11.2481 13.371 11.2982 13.4265 11.3604 13.4654C11.4226 13.5044 11.4945 13.5251 11.5679 13.5254L11.5676 13.5251ZM10.6336 12.4319C10.7621 12.4319 10.8816 12.3708 10.9584 12.2639C11.0174 12.1775 11.0402 12.0713 11.0219 11.9683C11.0035 11.8652 10.9455 11.7735 10.8603 11.7127C10.6893 11.5901 10.4313 11.6359 10.3093 11.8078C10.2488 11.894 10.2247 12.0006 10.2424 12.1044C10.2601 12.2082 10.3181 12.3008 10.4038 12.3621C10.4713 12.4079 10.5512 12.4319 10.6336 12.4319ZM6.53631 16.3058C6.61 16.3058 6.67975 16.2878 6.74134 16.2507C6.82966 16.1955 6.89434 16.11 6.92219 16.006C6.93451 15.9558 6.93678 15.9037 6.92887 15.8527C6.92095 15.8017 6.903 15.7527 6.87606 15.7087C6.76609 15.5281 6.51184 15.4637 6.33128 15.5706C6.24182 15.6262 6.17709 15.714 6.15044 15.8159C6.13804 15.8665 6.13573 15.919 6.14364 15.9705C6.15156 16.022 6.16954 16.0714 6.19656 16.1159C6.26659 16.2358 6.39822 16.3058 6.53631 16.3058ZM6.12597 14.9308H6.14088C6.24583 14.9258 6.34458 14.8796 6.41567 14.8023C6.48677 14.7249 6.52446 14.6226 6.52056 14.5176C6.51156 14.3067 6.34281 14.1379 6.10741 14.1379C6.00334 14.1444 5.90519 14.1869 5.83178 14.2664C5.76147 14.3429 5.72463 14.4439 5.72772 14.5516C5.7325 14.654 5.77658 14.7505 5.85077 14.8211C5.92496 14.8917 6.02354 14.931 6.12597 14.9308ZM6.41959 13.5251C6.57259 13.5251 6.71097 13.4396 6.77819 13.3051C6.82392 13.2104 6.83062 13.1014 6.79685 13.0017C6.76308 12.9021 6.69155 12.8196 6.59763 12.7722C6.40497 12.6768 6.15972 12.7626 6.06803 12.9527C6.04423 12.9993 6.03009 13.0502 6.02647 13.1023C6.02284 13.1545 6.0298 13.2068 6.04694 13.2562C6.0737 13.334 6.12389 13.4016 6.19061 13.4498C6.25733 13.4979 6.33732 13.5242 6.41959 13.5251ZM7.357 12.4319C7.43941 12.4319 7.519 12.4079 7.58678 12.3618C7.67243 12.3005 7.73045 12.2079 7.74824 12.104C7.76604 12.0002 7.74218 11.8935 7.68184 11.8072C7.55922 11.6356 7.30188 11.5895 7.13031 11.7121C7.08749 11.742 7.05109 11.7802 7.02327 11.8244C6.99544 11.8686 6.97676 11.9179 6.96831 11.9695C6.94975 12.0738 6.97141 12.1782 7.03216 12.2637C7.10866 12.3708 7.22847 12.4319 7.357 12.4319Z" fill="black"/>
</svg>
